<?xml version="1.0" encoding="UTF-8"?>
<svg width="800" height="600" viewBox="0 0 800 600" fill="none" xmlns="http://www.w3.org/2000/svg">
  <!-- Фоновые элементы -->
  <rect x="0" y="0" width="800" height="600" fill="white"/>
  
  <!-- Абстрактные формы -->
  <g opacity="0.1">
    <circle cx="200" cy="200" r="150" fill="#3B82F6"/>
    <circle cx="600" cy="400" r="120" fill="#3B82F6"/>
    <rect x="400" y="100" width="200" height="200" rx="30" fill="#3B82F6"/>
  </g>
  
  <!-- Основные элементы -->
  <g transform="translate(100, 100)">
    <!-- Группа разрозненных элементов (символизирует хаос) -->
    <rect x="50" y="50" width="60" height="60" rx="10" fill="#3B82F6" opacity="0.7" transform="rotate(15)"/>
    <circle cx="150" cy="80" r="30" fill="#3B82F6" opacity="0.5"/>
    <rect x="80" y="120" width="40" height="40" rx="8" fill="#3B82F6" opacity="0.6" transform="rotate(-10)"/>
    
    <!-- Соединительные линии (символизируют процесс) -->
    <path d="M200 150 C300 150, 300 300, 400 300" stroke="#3B82F6" stroke-width="3" stroke-dasharray="8 8"/>
    <path d="M180 200 C280 200, 280 350, 380 350" stroke="#3B82F6" stroke-width="3" stroke-dasharray="8 8"/>
    <path d="M220 100 C320 100, 320 250, 420 250" stroke="#3B82F6" stroke-width="3" stroke-dasharray="8 8"/>
    
    <!-- Группа упорядоченных элементов (символизирует порядок) -->
    <g transform="translate(400, 200)">
      <rect x="0" y="0" width="200" height="200" rx="20" fill="#3B82F6" opacity="0.1"/>
      <rect x="20" y="20" width="160" height="40" rx="8" fill="#3B82F6" opacity="0.7"/>
      <rect x="20" y="80" width="160" height="40" rx="8" fill="#3B82F6" opacity="0.5"/>
      <rect x="20" y="140" width="160" height="40" rx="8" fill="#3B82F6" opacity="0.3"/>
    </g>
  </g>
  
  <!-- Декоративные элементы -->
  <g opacity="0.05">
    <circle cx="700" cy="100" r="50" fill="#3B82F6"/>
    <circle cx="100" cy="500" r="30" fill="#3B82F6"/>
    <rect x="650" y="500" width="100" height="100" rx="20" fill="#3B82F6"/>
  </g>
</svg> 